<svg width="154" height="21" viewBox="0 0 154 21" fill="none" xmlns="http://www.w3.org/2000/svg">
<path d="M125.139 13.4091H125.117V14.8028H125.38V14.2169H125.595L125.975 14.8028H126.271C126.271 14.8028 125.888 14.2441 125.857 14.1993C126.09 14.1614 126.217 14.0309 126.217 13.8138C126.217 13.5424 126.043 13.4091 125.687 13.4091H125.139ZM125.654 13.6252C125.852 13.6252 125.945 13.6815 125.945 13.8022C125.945 13.9871 125.81 14.0008 125.618 14.0008H125.38V13.6252H125.654ZM125.637 12.8523C125.877 12.8523 126.101 12.9098 126.309 13.0227C126.516 13.1334 126.686 13.294 126.804 13.488C126.925 13.6792 126.988 13.8979 126.987 14.1204C126.988 14.3431 126.926 14.5619 126.806 14.754C126.688 14.9471 126.518 15.1071 126.312 15.2173C126.107 15.3295 125.874 15.3883 125.637 15.3877C125.398 15.389 125.164 15.3306 124.958 15.2183C124.753 15.1083 124.582 14.9483 124.465 14.7551C124.345 14.5628 124.283 14.3436 124.284 14.1206C124.284 13.8927 124.345 13.6815 124.466 13.4859C124.584 13.2929 124.754 13.1329 124.96 13.0227C125.165 12.9099 125.399 12.851 125.637 12.8523ZM125.637 13.0626C125.326 13.0626 125.061 13.1658 124.841 13.3739C124.622 13.5793 124.512 13.8296 124.512 14.1204C124.512 14.4135 124.622 14.6625 124.841 14.8679C125.059 15.0743 125.325 15.1775 125.637 15.1775C125.947 15.1775 126.211 15.0743 126.43 14.8679C126.65 14.6615 126.76 14.4124 126.76 14.1204C126.76 13.8294 126.649 13.5793 126.429 13.3741C126.21 13.1658 125.945 13.0626 125.637 13.0626ZM149.192 13.3079C151.151 15.4878 153.253 18.6071 154 20.7364H150.837C150.145 19.0665 148.44 16.6275 147.067 15.3049L149.192 13.3079ZM153.998 0V5.36243L145.429 13.4208C144.991 12.9778 144.542 12.5443 144.083 12.1205C139.235 7.63403 134.258 5.00137 132.93 6.22955C131.899 7.18431 133.409 10.1547 136.226 13.3964L135.049 14.4991C132.888 12.0689 131.226 9.59498 130.358 7.51035C129.685 5.89387 129.24 3.8764 130.351 2.83298C131.345 1.89785 133.358 1.9931 136.013 3.11131C138.706 4.24609 141.784 6.29959 144.628 8.81246L153.998 0ZM140.13 13.0393C140.492 13.2563 141.128 13.8052 141.637 14.285C142.116 14.7364 142.73 15.3371 142.997 15.7029L137.647 20.7364H131.945L140.13 13.0393ZM108.336 20.7432C110.209 20.8959 111.024 21 114.442 21C119.401 21 121.578 20.3305 121.578 18.458C121.578 16.7966 119.178 16.4006 116.942 16.0881C115.095 15.8313 114.01 15.8381 114.01 15.1305C114.01 14.425 115.92 14.461 117.154 14.461C117.795 14.461 119.304 14.5378 120.291 14.7207L121.343 13.111C120.522 13.0254 118.307 12.8521 115.835 12.8521C111.384 12.8521 108.67 13.4497 108.67 15.11C108.67 16.8686 111.044 17.1119 113.356 17.4398C115.225 17.7056 116.228 17.6902 116.228 18.3792C116.228 19.1558 114.589 19.1996 112.934 19.1996C112.233 19.1996 110.776 19.1236 109.562 18.8648L108.336 20.7432ZM0 17.0187C0 19.8041 2.40276 20.9185 7.69691 20.9185C9.99731 20.9185 12.1684 20.7792 13.913 20.4757V16.939H9.64236V19.0595C9.11777 19.117 8.72342 19.1521 8.10474 19.1521C5.12845 19.1521 4.5605 18.1322 4.5605 16.9759C4.5605 15.8673 5.24035 14.7522 8.40896 14.7522C10.1463 14.7522 11.2061 14.8446 12.7737 15.0967L13.9834 13.2854C11.2505 12.9731 9.30199 12.941 7.72083 12.941C2.44828 12.941 0 14.246 0 17.0187ZM83.5912 14.9381H89.4121L90.6259 13.1142H79.2337V20.7347H83.5912V18.5206H88.3244L89.5404 16.7026H83.5912V14.9381ZM22.4938 17.051L25.1553 20.7347H29.8502L27.1175 17.4336C27.5571 17.3879 29.3225 17.2564 29.3225 15.2807C29.3225 13.1279 26.574 13.1144 24.8045 13.1144H16.8312V20.7347H21.076L21.0771 14.6958H23.0474C23.9963 14.6958 24.8635 14.8623 24.8635 15.7673C24.8635 16.7698 24.4857 17.051 22.4938 17.051ZM102.049 16.9245C102.049 18.6101 101.146 19.2204 99.0782 19.2204C97.2373 19.2204 96.135 18.6101 96.135 16.9245C96.135 15.233 97.2373 14.6326 99.0772 14.6326C100.959 14.6326 102.049 15.2332 102.049 16.9245ZM106.719 16.8739C106.719 14.4214 104.387 12.8895 99.1144 12.8895C93.7738 12.8895 91.4704 14.4058 91.4704 16.8837C91.4704 19.6311 93.7738 20.9604 99.1144 20.9604C104.387 20.9604 106.719 19.6243 106.719 16.8739M67.0673 14.8435H69.0323C70.9819 14.8435 72.0882 15.3068 72.0882 16.9243C72.0882 18.4357 70.9819 19.005 69.0323 19.005H67.0693L67.0675 14.8435H67.0673ZM62.7935 13.1142V20.7345H69.4742C74.343 20.7345 76.6062 19.918 76.6062 16.9058C76.6062 13.8947 74.343 13.1142 69.4722 13.1142H62.7935ZM55.9314 20.7345L49.8385 16.8718V20.7345H47.2961V13.114H50.9656L57.0554 17.014V13.114H59.5845V20.7345H55.9314ZM44.3344 13.114V17.5891C44.3362 18.792 44.0363 19.2989 43.3719 19.8168C42.3402 20.6178 40.3399 20.9563 38.0396 20.9563C35.7382 20.9563 33.8112 20.6178 32.7786 19.8168C32.1173 19.2991 31.8006 18.792 31.8006 17.5891V13.1142H36.0992V17.3156C36.0992 18.7715 36.7823 19.227 38.0799 19.227C39.3806 19.227 40.0544 18.7715 40.0544 17.3156V13.1142L44.3344 13.114Z" fill="currentColor"/>
</svg>
