<svg width="54" height="31" viewBox="0 0 54 31" fill="none" xmlns="http://www.w3.org/2000/svg">
    <path d="M8.90147 0.428101C9.45258 0.538323 10.0134 0.594405 10.5562 0.753454C12.1409 1.21803 13.4307 2.06597 14.2303 3.55735C14.6122 4.27089 14.8104 5.03954 14.8858 5.83817C15.0004 7.04964 14.8699 8.23114 14.37 9.35367C13.7696 10.7034 12.7636 11.6432 11.4211 12.233C11.0634 12.3896 11.0595 12.3843 11.2833 12.6922C12.585 14.4809 13.8874 16.2696 15.1904 18.0583C15.2141 18.0907 15.2387 18.1212 15.262 18.155C15.2977 18.2149 15.3751 18.2686 15.3379 18.345C15.3006 18.4214 15.2093 18.3933 15.1406 18.3933C14.3357 18.3933 13.5308 18.3885 12.7259 18.3991C12.5253 18.3991 12.402 18.3295 12.2869 18.1709C11.0519 16.4725 9.81419 14.7763 8.5737 13.0824C8.48379 12.9591 8.39725 12.874 8.22467 12.875C6.72603 12.8851 5.2303 12.8861 3.73312 12.89C3.40149 12.89 3.40004 12.89 3.40004 13.2284C3.40004 14.8366 3.40004 16.4453 3.40004 18.0544C3.40004 18.389 3.3923 18.3962 3.06695 18.3962C2.4791 18.3962 1.89142 18.3962 1.30389 18.3962C0.989658 18.3962 0.980957 18.388 0.980957 18.0694C0.980957 15.5678 0.980957 13.0661 0.980957 10.5642C0.980957 7.18532 0.982244 3.80679 0.984822 0.428584L8.90147 0.428101ZM3.39665 6.64308C3.39665 7.82506 3.40246 9.00753 3.39182 10.1895C3.3894 10.4312 3.4595 10.5086 3.70605 10.5066C5.09011 10.496 6.47417 10.5115 7.85823 10.4979C8.60754 10.4902 9.35203 10.4167 10.0694 10.1716C10.988 9.8574 11.7329 9.33095 12.1443 8.41871C12.5161 7.59398 12.5751 6.72913 12.4426 5.84445C12.2686 4.68132 11.6494 3.84789 10.5853 3.34415C9.72862 2.93662 8.80962 2.83171 7.8824 2.81625C6.4906 2.79256 5.09784 2.81625 3.70557 2.80464C3.4595 2.80464 3.3894 2.87861 3.39182 3.12081C3.40246 4.29458 3.39665 5.46883 3.39665 6.64308Z" fill="currentColor"/>
    <path d="M27.6893 0.428101C28.0418 1.20401 28.3889 1.98281 28.7471 2.75582C30.713 7.00259 32.6824 11.2489 34.6551 15.4947C35.0612 16.3707 35.4669 17.2463 35.8724 18.1216C35.9826 18.3604 35.9623 18.3919 35.6877 18.3928C34.9872 18.3928 34.2857 18.3875 33.5867 18.3967C33.3967 18.3996 33.2966 18.3266 33.2203 18.1579C32.5623 16.7163 31.8937 15.28 31.2382 13.837C31.1415 13.6262 31.0545 13.6127 30.8602 13.7108C29.611 14.3436 28.3545 14.9619 27.1049 15.5928C26.9217 15.6851 26.7708 15.6895 26.5847 15.5967C25.3201 14.9595 24.0482 14.3369 22.784 13.6982C22.5964 13.6016 22.52 13.6417 22.4398 13.8201C21.7949 15.2583 21.1398 16.6921 20.4974 18.1318C20.4147 18.3174 20.3185 18.4044 20.1043 18.4011C19.3966 18.3885 18.6879 18.3972 17.9772 18.3957C17.694 18.3957 17.6819 18.3793 17.8042 18.11C18.247 17.1364 18.6916 16.1636 19.138 15.1916C20.4132 12.4054 21.6887 9.61939 22.9643 6.83355L25.8982 0.428101H27.6893ZM26.7965 4.24962C26.6891 4.48505 26.6094 4.65908 26.5301 4.8336C25.5797 6.92685 24.6278 9.01962 23.6745 11.1119C23.5734 11.3319 23.6155 11.431 23.8311 11.5349C24.7656 11.9864 25.6928 12.4534 26.619 12.9199C26.6803 12.9563 26.7501 12.9757 26.8214 12.9763C26.8926 12.9769 26.9628 12.9586 27.0246 12.9233C27.9504 12.4544 28.8805 11.9946 29.8087 11.5306C30.0901 11.3899 30.0881 11.3884 29.9537 11.0955C29.1335 9.31386 28.3133 7.53227 27.4931 5.75067C27.2702 5.26772 27.0464 4.78864 26.7965 4.24962Z" fill="currentColor"/>
    <path d="M52.6598 0.428068C52.5027 0.734563 52.232 0.946308 52.0057 1.19237C49.8203 3.56408 47.6305 5.93063 45.4364 8.29202C45.1169 8.63768 45.1154 8.64348 45.4151 9.01282C47.7578 11.8963 50.1014 14.7795 52.4457 17.6623C52.5926 17.8438 52.7391 18.0252 52.8851 18.2067C52.9736 18.3169 52.9861 18.3947 52.8063 18.3943C51.8878 18.3943 50.9693 18.3943 50.0541 18.3943C49.8898 18.3943 49.8124 18.2773 49.7288 18.1738C48.9779 17.2498 48.2287 16.325 47.4813 15.3994C46.1948 13.8125 44.9088 12.2252 43.6236 10.6376C43.4979 10.4824 43.4137 10.4655 43.2678 10.6255C42.5368 11.428 41.7989 12.2242 41.0541 13.0142C40.9977 13.0699 40.9533 13.1366 40.9239 13.2102C40.8944 13.2838 40.8805 13.3627 40.883 13.442C40.8878 14.9783 40.8859 16.5142 40.883 18.0505C40.883 18.3933 40.883 18.3938 40.5306 18.3943C39.919 18.3943 39.307 18.387 38.6935 18.3981C38.4774 18.4015 38.3808 18.3367 38.3967 18.111C38.4107 17.9108 38.3996 17.7088 38.3996 17.5076C38.3996 11.9263 38.3996 6.34493 38.3996 0.763572C38.3996 0.651416 38.4044 0.538777 38.4069 0.425171H40.8724C40.8757 0.545545 40.8825 0.666885 40.8825 0.786775C40.8825 3.64094 40.8825 6.49511 40.8825 9.34928C40.8825 9.43388 40.8579 9.52284 40.9207 9.63548C40.9816 9.56683 41.0324 9.50688 41.0855 9.44935C41.5909 8.89824 42.0964 8.34746 42.6021 7.79699C44.424 5.82428 46.2449 3.85123 48.0648 1.87787C48.5047 1.39831 48.9722 0.943408 49.3701 0.425171L52.6598 0.428068Z" fill="currentColor"/>
    <path d="M0.932129 27.4566C1.09601 27.0544 1.26183 26.6575 1.57944 26.3394C2.0269 25.889 2.62534 25.6204 3.25922 25.5854C3.8931 25.5505 4.51747 25.7515 5.01179 26.1499C5.25351 26.3433 5.07512 26.454 4.98327 26.6024C4.87547 26.7764 4.7841 26.7377 4.641 26.6275C3.59534 25.8216 2.12717 26.1533 1.65727 27.3043C1.38897 27.9594 1.4668 28.5888 1.90769 29.1462C2.34278 29.6944 2.93256 29.9037 3.61903 29.8433C3.99999 29.8136 4.3617 29.6638 4.65212 29.4155C4.89384 29.209 4.96684 29.4546 5.08721 29.5605C5.24287 29.6973 5.11476 29.7824 5.01759 29.8675C3.72007 31.0098 1.61377 30.4645 1.038 28.8378C1.00561 28.7469 0.967419 28.6584 0.932129 28.569V27.4566Z" fill="currentColor"/>
    <path d="M33.9613 26.7643C33.7152 27.2405 33.4672 27.7162 33.2236 28.1938C32.9658 28.7024 32.7079 29.2122 32.4501 29.7234C32.3882 29.8471 32.3365 29.9651 32.1601 29.9704C31.9836 29.9757 31.9077 29.867 31.8386 29.7287C31.3493 28.7593 30.8583 27.7908 30.3656 26.8233C30.3477 26.7885 30.3264 26.7551 30.2776 26.671C30.2708 26.7972 30.2636 26.8721 30.2636 26.9466C30.2636 28.0164 30.2592 29.0862 30.2665 30.1561C30.2665 30.3663 30.2152 30.4621 29.9841 30.4606C29.7531 30.4592 29.6665 30.3924 29.6675 30.157C29.6743 28.7409 29.6743 27.3251 29.6675 25.9096C29.6675 25.678 29.7579 25.6195 29.9812 25.6007C30.3143 25.5717 30.4888 25.6974 30.6315 25.9923C31.0757 26.9031 31.5456 27.8008 32.0063 28.7038C32.046 28.7812 32.089 28.8566 32.1315 28.9354C32.2388 28.8904 32.2509 28.7937 32.2886 28.7198C32.7785 27.7603 33.2668 26.7996 33.7534 25.8376C33.8554 25.6374 34.3548 25.5122 34.5313 25.6413C34.5994 25.6896 34.597 25.7665 34.597 25.8385C34.597 27.3024 34.597 28.7667 34.597 30.2305C34.597 30.4654 34.4476 30.45 34.2886 30.4563C34.1059 30.464 34.0024 30.419 34.0034 30.2054C34.0101 29.1597 34.0063 28.114 34.0063 27.0684C34.0063 26.9717 34.0063 26.875 34.0063 26.7807L33.9613 26.7643Z" fill="currentColor"/>
    <path d="M15.3174 28.0421C15.3174 27.3271 15.3232 26.6117 15.3145 25.8967C15.3116 25.6869 15.387 25.609 15.5954 25.6168C16.278 25.6429 16.963 25.5684 17.6427 25.6598C18.4133 25.7657 18.932 26.2143 19.0485 26.851C19.2076 27.7211 18.9238 28.3742 18.2011 28.7653C18.0677 28.8374 18.0696 28.8935 18.146 29.0017C18.4335 29.4081 18.7179 29.8173 18.9992 30.2292C19.0379 30.2857 19.1153 30.3433 19.0771 30.4182C19.0389 30.4931 18.947 30.4515 18.8789 30.4627C18.5825 30.511 18.3862 30.4051 18.2359 30.1334C18.0503 29.795 17.8119 29.4895 17.6074 29.1627C17.5175 29.0177 17.4141 28.9495 17.2366 28.9563C16.8908 28.9692 16.545 28.9692 16.1992 28.9563C15.9933 28.9486 15.9092 29.0104 15.9188 29.228C15.9338 29.5664 15.9145 29.9048 15.9246 30.2403C15.9319 30.482 15.7767 30.4607 15.6201 30.4631C15.4634 30.4656 15.3145 30.4685 15.3169 30.2355C15.3237 29.504 15.3169 28.7731 15.3169 28.0417L15.3174 28.0421ZM15.9222 27.2638V28.1553C15.9222 28.2568 15.927 28.3588 16.0672 28.3568C16.599 28.3501 17.1308 28.41 17.6534 28.2911C18.1629 28.1751 18.4346 27.8671 18.4621 27.4035C18.5052 26.6818 18.1266 26.252 17.3894 26.2162C16.9722 26.1959 16.5536 26.2133 16.1354 26.207C15.9817 26.2046 15.9179 26.2641 15.9217 26.4202C15.927 26.7011 15.9222 26.9825 15.9222 27.2638Z" fill="currentColor"/>
    <path d="M8.49909 28.0314C8.49909 27.3236 8.50441 26.6159 8.49571 25.9082C8.49281 25.6964 8.55082 25.6051 8.78045 25.6075C9.698 25.6178 10.6155 25.6178 11.5331 25.6075C11.7811 25.6046 11.8019 25.7303 11.8053 25.9232C11.8087 26.116 11.7502 26.2132 11.5312 26.2132C10.8234 26.2035 10.1147 26.2195 9.40697 26.2045C9.15655 26.1992 9.08162 26.2857 9.09613 26.5245C9.11264 26.8144 9.11264 27.1049 9.09613 27.3947C9.08404 27.6219 9.15801 27.708 9.39489 27.7031C10.0064 27.6896 10.618 27.6973 11.2319 27.6998C11.3315 27.6998 11.4644 27.6688 11.5007 27.7998C11.546 27.9392 11.5413 28.09 11.4872 28.2262C11.4437 28.3229 11.3325 28.2934 11.2455 28.2939C10.617 28.2939 9.98854 28.3011 9.36008 28.2939C9.16139 28.291 9.08791 28.3567 9.09467 28.5569C9.10628 28.902 9.10724 29.2487 9.09467 29.5938C9.08694 29.8022 9.15607 29.8781 9.37023 29.8752C10.1021 29.8655 10.835 29.8708 11.5674 29.8723C11.8609 29.8723 12.0025 30.1072 11.8768 30.3697C11.8381 30.4505 11.769 30.4597 11.6955 30.4597C10.6977 30.4597 9.69993 30.4597 8.70165 30.4597C8.52084 30.4597 8.49522 30.3538 8.49571 30.2073C8.50054 29.4793 8.49909 28.7556 8.49909 28.0314Z" fill="currentColor"/>
    <path d="M26.1924 30.4558C25.9846 30.5085 25.8598 30.392 25.7791 30.1687C25.6916 29.9269 25.5688 29.6992 25.4712 29.4614C25.4122 29.3164 25.3261 29.2477 25.1637 29.2492C24.4547 29.2559 23.7456 29.2559 23.0366 29.2492C22.8853 29.2492 22.8007 29.3048 22.7432 29.4425C22.6281 29.7166 22.5015 29.9874 22.3782 30.2571C22.2984 30.4287 21.8769 30.5433 21.7285 30.436C21.6318 30.3664 21.7053 30.291 21.7347 30.2213C21.9671 29.6915 22.2017 29.1623 22.4386 28.6338C22.8421 27.7314 23.2464 26.829 23.6515 25.9266C23.7826 25.6331 24.0552 25.5142 24.3506 25.6273C24.4719 25.6757 24.4956 25.7926 24.544 25.8922C25.1421 27.2194 25.7383 28.5472 26.3326 29.8757C26.381 29.9854 26.4327 30.0952 26.4815 30.2054C26.5816 30.4302 26.569 30.4505 26.3254 30.4568C26.2964 30.4568 26.2621 30.4558 26.1924 30.4558ZM24.1035 26.3539C23.7734 27.1056 23.4703 27.7965 23.1667 28.4868C23.1033 28.6318 23.1831 28.6521 23.3006 28.6517C23.8396 28.6517 24.3786 28.6488 24.9176 28.6517C25.0627 28.6517 25.111 28.6106 25.0486 28.4679C24.7431 27.7878 24.439 27.1052 24.1035 26.3539Z" fill="currentColor"/>
    <path d="M51.3591 30.465C50.749 30.5013 50.1921 30.277 49.6864 29.9018C49.5114 29.7723 49.5574 29.3478 49.7541 29.2511C49.8508 29.2028 49.8991 29.2937 49.9591 29.3391C50.4251 29.7084 50.9482 29.8999 51.5476 29.8627C51.7577 29.8579 51.9632 29.7998 52.1447 29.6939C52.5445 29.4435 52.5672 28.9263 52.1882 28.643C51.9112 28.4361 51.5781 28.3573 51.2556 28.2601C50.9686 28.1813 50.6899 28.0746 50.4237 27.9415C49.992 27.7133 49.7681 27.3493 49.7754 26.8664C49.7826 26.3834 50.0214 26.016 50.4667 25.8212C51.2813 25.4649 52.0847 25.5485 52.8592 25.9522C53.1425 26.1001 52.9041 26.2833 52.8548 26.4443C52.7983 26.6314 52.6764 26.5744 52.5508 26.5096C52.0673 26.2611 51.5583 26.1349 51.0134 26.2679C50.7432 26.3331 50.5063 26.4482 50.457 26.7615C50.4169 27.0172 50.5784 27.2734 50.8781 27.432C51.157 27.5794 51.4635 27.6534 51.7623 27.7491C52.1147 27.8617 52.4584 27.9874 52.7528 28.2325C53.2715 28.6609 53.2363 29.7075 52.6644 30.1078C52.3134 30.3514 51.9692 30.4645 51.3591 30.465Z" fill="currentColor"/>
    <path d="M45.026 30.4626C43.9513 30.4602 43.028 29.8206 42.6828 28.8393C42.3483 27.8884 42.6345 26.8089 43.3881 26.1852C44.2501 25.4712 45.3862 25.3779 46.3371 25.9435C46.413 25.989 46.4874 26.0373 46.5594 26.0885C46.8563 26.2964 46.8495 26.3037 46.6421 26.586C46.5261 26.7426 46.4487 26.7586 46.282 26.6271C45.6462 26.1248 44.938 26.0209 44.2032 26.3771C43.5124 26.7122 43.1459 27.2845 43.1566 28.059C43.1754 29.4542 44.7906 30.3176 46.0243 29.6007C46.1171 29.5522 46.2045 29.4938 46.2848 29.4266C46.4299 29.2927 46.5319 29.3038 46.6561 29.4648C46.8543 29.7205 46.8659 29.7172 46.6116 29.9086C46.1427 30.262 45.6254 30.4815 45.026 30.4626Z" fill="currentColor"/>
    <path d="M38.5928 28.0115C38.5928 27.3048 38.6006 26.5975 38.589 25.8912C38.5851 25.6582 38.6857 25.6055 38.8916 25.607C39.0975 25.6084 39.2005 25.649 39.1991 25.8869C39.1904 27.3162 39.1904 28.746 39.1991 30.1763C39.1991 30.4089 39.1024 30.462 38.8959 30.4606C38.6895 30.4591 38.5846 30.419 38.5885 30.1802C38.6006 29.4575 38.5928 28.7348 38.5928 28.0115Z" fill="currentColor"/>
</svg>
