<svg width="156" height="28" viewBox="0 0 156 28" fill="none" xmlns="http://www.w3.org/2000/svg">
    <path d="M149.064 20.2649H58.1218C44.1563 20.2649 30.1906 20.2581 16.2247 20.2446C15.2592 20.2446 14.6906 20.5128 14.2744 21.41C13.5262 23.0212 12.653 24.5744 11.8407 26.1559C11.0035 27.7864 11.0082 27.7902 12.8746 27.7902H17.1549L17.1492 27.8062L60.2584 27.7902H126.78C133.124 27.7902 139.47 27.777 145.814 27.8057C146.634 27.8095 147.097 27.5385 147.453 26.8005C148.268 25.1093 149.163 23.4547 150.028 21.7889C150.809 20.2852 150.798 20.2649 149.064 20.2649Z" fill="currentColor"/>
    <path d="M11.7793 17.487C14.2836 17.5158 16.737 17.1694 19.0617 16.1953C22.8154 14.6228 25.7308 12.1959 26.9293 8.1371C27.6864 5.57261 26.7369 3.56889 24.2986 2.45487C22.5151 1.64009 20.609 1.51239 18.9264 1.52935C15.3241 1.50485 12.0905 2.22443 8.89592 3.1787C8.31793 3.35117 7.73664 3.52082 7.1742 3.73618C6.80977 3.87755 6.31616 4.04908 6.50474 4.56273C6.67965 5.03869 7.12988 4.79411 7.47168 4.71353C8.22176 4.53682 8.96664 4.33654 9.71672 4.157C10.3947 3.99489 10.7068 4.20648 10.4786 4.93737C10.3885 5.22577 10.3117 5.51888 10.2037 5.80021C7.74795 12.2247 5.28417 18.6444 2.46208 24.9208C2.1382 25.6409 1.68655 26.2436 1.03878 26.7083C0.762514 26.9067 0.267966 27.0853 0.52349 27.5372C0.759214 27.9571 1.1986 27.6743 1.5305 27.5843C3.92369 26.9221 6.36603 26.4524 8.83416 26.1795C9.19968 26.1325 9.5583 26.0422 9.90247 25.9104C10.1948 25.8039 10.464 25.5806 10.3899 25.2342C10.306 24.8403 9.93217 24.8897 9.6427 24.9223C9.01049 24.9939 8.38346 25.1173 7.75125 25.1942C6.5962 25.3355 6.22376 24.9208 6.53727 23.8299C6.69474 23.2828 6.89652 22.7461 7.10725 22.2178C9.17832 17.0125 11.2319 11.7996 13.4605 6.65881C14.6801 3.84503 14.6066 3.1245 18.8133 3.19943C19.0815 3.20414 19.3512 3.21593 19.6171 3.24656C21.667 3.48595 23.004 4.93454 22.8927 6.99057C22.7513 9.59795 21.5463 11.7529 19.6397 13.4753C17.4296 15.4715 14.7499 16.1722 11.8137 16.0309C11.2202 16.0026 10.4503 15.914 10.4607 16.7962C10.4687 17.6331 11.2664 17.4813 11.7793 17.487Z" fill="currentColor"/>
    <path d="M49.6231 14.4244C49.2615 15.0577 48.9631 15.7632 48.1757 16.02C48.0173 16.0714 47.8457 16.159 47.8575 16.3588C47.8717 16.6255 48.1012 16.6623 48.296 16.6628C49.7706 16.6694 51.2458 16.6722 52.7205 16.6524C52.9722 16.6491 53.4154 16.5379 53.2782 16.2457C52.7686 15.1619 53.6756 14.5492 54.0589 13.8169C55.6727 10.7369 55.7062 10.7656 59.1812 10.8858C59.7616 10.9056 60.1335 11.0668 60.2952 11.6558C60.605 12.7868 60.9383 13.9107 61.2711 15.0351C61.4031 15.4809 61.3456 15.8287 60.8624 16.0115C60.6771 16.0817 60.4263 16.142 60.4541 16.3843C60.4895 16.6925 60.7841 16.676 61.0095 16.6769C62.7193 16.6835 64.4292 16.6835 66.1393 16.6769C66.375 16.6769 66.6447 16.6769 66.7602 16.4347C66.9045 16.1298 66.6037 16.0426 66.4274 15.913C66.0285 15.619 65.8239 15.2038 65.6782 14.7505C65.3807 13.8254 65.1455 12.8749 64.774 11.981C64.394 11.0668 64.6099 10.6926 65.5919 10.514C67.6333 10.1427 69.4107 9.23553 70.6397 7.49806C71.4035 6.41797 72.1295 5.22573 71.5058 3.8695C70.8585 2.46331 69.4248 2.40865 68.1199 2.36153C66.2444 2.30121 64.3652 2.34833 62.4875 2.34833V2.33325C60.4758 2.33325 58.4641 2.32477 56.4529 2.3422C56.1262 2.34503 55.4209 2.31629 55.6364 2.72815C56.0711 3.55801 55.5171 4.01276 55.2225 4.54196C53.3786 7.84819 51.4999 11.136 49.6231 14.4244ZM57.5434 7.56733C57.9473 6.87461 58.3339 6.17167 58.7032 5.45852C58.9318 5.0165 59.2689 4.84827 59.754 4.85157C61.7935 4.86617 63.833 4.85157 65.8725 4.87324C66.4429 4.87937 67.0624 4.93827 67.3377 5.54099C67.6206 6.15785 67.193 6.63003 66.8413 7.07158C66.2916 7.76054 65.5429 8.08287 64.6773 8.1988C63.3134 8.38164 61.9453 8.3953 60.8365 8.36939C59.7385 8.36939 58.9035 8.35478 58.0667 8.3741C57.4213 8.39012 57.1705 8.20963 57.5443 7.56733H57.5434Z" fill="currentColor"/>
    <path d="M70.5145 14.5308C70.1845 15.1585 69.8833 15.8032 69.1388 16.0496C68.9658 16.1071 68.8258 16.2226 68.8654 16.412C68.905 16.6014 69.086 16.6519 69.2586 16.6608C69.5597 16.6771 69.8613 16.6855 70.1633 16.6858C74.6578 16.6858 79.1522 16.6875 83.6467 16.691C84.1379 16.691 84.6367 16.6189 85.0445 17.068C85.3646 17.4186 85.6621 17.1726 85.8342 16.838C86.2939 15.9426 86.737 15.0407 87.1797 14.1373C87.2655 13.962 87.3848 13.7566 87.2066 13.5817C87.0208 13.3989 86.8294 13.5346 86.6687 13.6496C86.3608 13.8664 86.0374 14.0313 85.6503 14.0318C82.3301 14.0352 79.0095 14.0393 75.6887 14.044C75.1286 14.044 74.9395 13.8404 75.2172 13.3093C75.575 12.6265 75.9513 11.9508 76.2643 11.2477C76.517 10.6822 76.8923 10.456 77.5136 10.4654C79.3579 10.4927 81.2032 10.4744 83.048 10.4767C83.3841 10.4767 83.7259 10.4739 83.9729 10.7665C84.3355 11.1963 84.6202 11.0083 84.8258 10.6252C85.2854 9.76985 85.7215 8.90182 86.1609 8.03332C86.2486 7.85991 86.3754 7.64408 86.1765 7.48715C85.9879 7.3373 85.7899 7.48197 85.6338 7.60496C85.1478 7.98714 84.5811 7.98903 84.0055 7.9862C82.7646 7.9796 81.5233 7.9862 80.281 7.9862C77.8738 7.9862 77.8927 7.99468 79.0765 5.83922C79.4536 5.15309 79.885 4.81804 80.7266 4.83359C83.6104 4.88778 86.4957 4.85103 89.3804 4.8581C89.7727 4.8581 90.2064 4.76715 90.5119 5.12482C90.9791 5.67287 91.2559 5.3529 91.4807 4.9104C91.922 4.04473 92.3449 3.16964 92.772 2.29643C92.8583 2.11971 92.9936 1.91519 92.7753 1.75827C92.5868 1.62161 92.3817 1.72387 92.2308 1.86524C91.7122 2.34826 91.0777 2.33648 90.4346 2.33648C88.2881 2.3313 86.1411 2.33648 83.9946 2.33648C83.1224 2.33648 82.2503 2.33648 81.3781 2.33648C79.8695 2.33648 78.3608 2.32517 76.8522 2.34874C76.5443 2.35345 75.8857 2.27711 76.1889 2.84024C76.5245 3.46416 76.1417 3.80676 75.9348 4.20684C74.1433 7.65303 72.3216 11.0879 70.5145 14.5308Z" fill="currentColor"/>
    <path d="M31.0393 16.3748C33.6384 17.1354 36.2851 17.0138 38.9233 16.6915C42.462 16.2598 45.4109 14.831 47.2298 11.571C48.5857 9.14077 49.9745 6.73084 51.3535 4.31102C51.6684 3.75872 51.9607 3.18381 52.6264 2.94442C52.7985 2.88268 53.0507 2.80304 52.9612 2.53491C52.881 2.29929 52.6311 2.3417 52.4426 2.34028C51.4021 2.33133 50.3616 2.31154 49.3221 2.34028C48.6927 2.35819 47.6696 1.99581 48.1519 3.35345C48.1915 3.46608 48.0388 3.65835 47.9549 3.8016C46.4462 6.376 44.9404 8.95274 43.4181 11.5191C43.0462 12.1599 42.5183 12.6965 41.8836 13.0789C39.8092 14.3306 37.5519 14.4455 35.2649 14.0751C33.4263 13.7759 33.1274 13.1223 34.0335 11.5163C35.3342 9.20957 36.7325 6.95798 38.0879 4.68329C38.5151 3.96654 38.8569 3.17532 39.7352 2.8643C39.8898 2.80917 40.0506 2.69277 39.9671 2.48731C39.8893 2.29881 39.6899 2.33133 39.5291 2.32991C38.8243 2.32473 38.12 2.32991 37.4152 2.32991V2.33416C36.9791 2.33416 36.5406 2.30588 36.1069 2.34075C35.4653 2.39259 34.4154 1.96376 34.8142 3.369C34.8533 3.5066 34.6464 3.72008 34.5422 3.89161C33.7784 5.15407 32.9911 6.40286 32.2505 7.67851C31.2604 9.3877 30.0309 10.9668 29.2893 12.815C28.5043 14.7622 29.0244 15.7853 31.0393 16.3748Z" fill="currentColor"/>
    <path d="M150.063 0.54722C146.071 0.0250839 142.299 0.713567 138.803 2.69608C135.563 4.53392 133.215 7.1578 132.089 10.7722C130.769 15.0134 132.762 18.2456 137.121 18.9365C137.983 19.0731 138.847 19.1938 139.724 19.1401C140.634 19.1914 141.539 19.1009 142.429 18.9421C148.205 17.9144 152.679 15.1124 155.102 9.55972C157.108 4.96087 154.991 1.19141 150.063 0.54722ZM152.494 8.195C151.215 13.4168 146.586 17.3757 141.234 17.8196C140.26 17.8961 139.282 17.7841 138.351 17.4898C135.544 16.6199 134.351 14.2585 135.095 11.0936C136.347 5.7648 141.567 1.64144 146.71 1.63202C148.225 1.61317 149.356 1.76066 150.38 2.3238C152.36 3.41378 153.131 5.5961 152.494 8.195Z" fill="currentColor"/>
    <path d="M112.172 17.1608C111.828 17.9619 111.323 18.5925 110.536 18.9987C110.217 19.1627 109.757 19.3728 110.018 19.8092C110.278 20.2456 110.693 19.8917 110.992 19.7465C112.929 18.8092 114.939 18.0595 116.948 17.2998C117.369 17.141 118.164 17.0642 117.909 16.4186C117.673 15.8253 117.095 16.3889 116.678 16.4733C116.261 16.5576 115.806 16.8192 115.442 16.4643C115.077 16.1095 115.402 15.6957 115.532 15.3404C116.946 11.464 118.416 7.60877 120.088 3.83365C120.275 3.40215 120.527 3.00206 120.836 2.64753C121.641 1.73332 123.253 1.37518 124.245 1.88506C125.292 2.42416 125.67 3.48729 125.197 4.94295C124.43 7.30434 122.769 8.82315 120.477 9.69259C119.381 10.1082 119.221 10.4376 119.841 11.3825C121.354 13.685 123.038 15.8621 124.969 17.8314C125.984 18.8681 127.232 19.2451 128.657 18.7649C128.933 18.6707 129.303 18.6419 129.334 18.2659C129.359 17.9539 129.048 17.8347 128.832 17.6919C126.313 16.0317 124.677 13.6317 123.281 11.0408C122.683 9.93151 122.736 9.80428 123.876 9.17517C125.185 8.45276 126.359 7.55881 127.273 6.37929C128.272 5.09139 129.021 3.63761 128.285 2.00665C127.578 0.444479 126.011 0.433641 124.554 0.3573C124.52 0.3573 124.487 0.3573 124.453 0.3573C121.256 0.445893 118.23 1.28046 115.288 2.47223C115.163 2.52108 115.045 2.58553 114.936 2.66403C114.74 2.81058 114.577 3.00332 114.68 3.26109C114.796 3.55185 115.064 3.49341 115.286 3.42508C115.703 3.2969 116.108 3.13433 116.521 2.99295C116.801 2.89871 117.115 2.71351 117.37 2.97081C117.591 3.19653 117.404 3.48917 117.319 3.72809C115.708 8.24447 114.066 12.751 112.172 17.1608Z" fill="currentColor"/>
    <path d="M94.1206 19.3799C95.6877 18.8733 97.2911 18.5316 98.912 18.2442C99.4268 18.1532 100.339 18.1933 100.208 17.4968C100.102 16.9365 99.2929 17.3323 98.7998 17.4025C97.574 17.576 97.2732 17.2777 97.6749 16.1099C99.1482 11.8301 100.812 7.61769 102.311 3.34965C103.05 1.24414 107.11 1.22906 108.092 2.62818C108.507 3.22147 108.745 3.87744 108.657 4.61352C108.253 8.01023 105.323 10.6982 101.903 10.8169C101.501 10.8311 101.097 10.8245 100.698 10.8693C100.375 10.9055 100.117 11.0865 100.11 11.4465C100.102 11.8777 100.447 11.8876 100.75 11.9036C101.053 11.9197 101.354 11.9069 101.655 11.9069C104.841 11.7717 107.591 10.6346 109.806 8.30853C110.654 7.41647 111.211 6.34109 111.541 5.16676C112.248 2.6541 110.801 0.881286 107.847 0.527384C104.273 0.098554 100.93 1.02124 97.6292 2.2116C97.3288 2.31999 96.8833 2.45382 96.9979 2.8638C97.1318 3.344 97.5561 3.0523 97.854 3.00046C98.152 2.94863 98.432 2.82704 98.7243 2.75353C99.746 2.49576 99.9449 2.66682 99.6224 3.6258C98.1039 8.13794 96.5396 12.6345 94.7472 17.0472C94.5115 17.6339 94.2597 18.2253 93.7218 18.633C93.4913 18.8068 93.1433 18.993 93.3781 19.3478C93.5592 19.6212 93.8741 19.4595 94.1206 19.3799Z" fill="currentColor"/>
</svg>
