<svg width="156" height="25" viewBox="0 0 156 25" fill="none" xmlns="http://www.w3.org/2000/svg">
    <path fill-rule="evenodd" clip-rule="evenodd" d="M10.0688 0.928838L0.970747 9.17586C0.641606 9.47596 0.452393 9.89751 0.452393 10.3437V22.8176C0.452393 23.6898 1.16084 24.3956 2.03034 24.3956H20.3919C21.2596 24.3956 21.9672 23.6898 21.9672 22.8176V10.3446C21.9672 9.89751 21.7762 9.46716 21.4383 9.16706L12.1765 0.919156C11.8857 0.660846 11.5098 0.518982 11.1208 0.520769C10.7318 0.522555 10.3572 0.667868 10.0688 0.928838ZM11.1345 3.7107C12.775 5.17248 18.3924 10.173 19.2663 10.9509V21.7475H3.15329V10.9439C4.01047 10.1668 9.50555 5.1848 11.1345 3.7107Z" fill="currentColor"/>
    <path fill-rule="evenodd" clip-rule="evenodd" d="M11.1388 9.67217C10.3873 10.3507 7.85359 12.6468 7.46021 13.0041V17.9843H14.8861V13.0111C14.4822 12.6503 11.8939 10.3472 11.1388 9.67217ZM102.262 9.07902V12.0492H108.164V23.2013H111.401V12.0492H117.156V9.07902H102.262ZM151.953 9.07902V19.1073L143.094 9.95908C142.31 9.12918 141.394 8.7886 140.375 8.94965C139.45 9.0931 138.85 9.84819 138.85 10.8735V23.2022H142.018V13.1722L150.735 22.1787C151.638 23.1318 152.459 23.4935 153.398 23.3632C154.942 23.1415 155.121 22.0062 155.121 21.1693V9.07902H151.953ZM118.71 16.1221C118.71 22.2456 121.792 23.4407 127.343 23.4407C132.89 23.4407 135.972 22.2456 135.972 16.1221C135.972 9.99956 132.89 8.80444 127.343 8.80444C121.792 8.80444 118.71 9.99956 118.71 16.1221ZM132.555 16.1221C132.555 20.2047 130.768 20.3939 127.342 20.3939C123.913 20.3939 122.127 20.2047 122.127 16.1221C122.127 12.0404 123.912 11.8512 127.342 11.8512C130.768 11.8512 132.555 12.0404 132.555 16.1221ZM77.2057 23.1978H80.417V9.07726H77.2057V23.1978ZM70.1934 17.8374C72.2105 17.3392 73.3546 15.8027 73.3546 13.7064C73.3546 10.8497 71.4695 9.07726 68.4359 9.07726H58.3355V23.1978H61.5046V18.1586H66.6371L70.1925 23.1978H73.9108L70.1934 17.8374ZM61.5046 12.0096H67.9932C69.903 12.0096 70.1327 12.8756 70.1327 13.6949C70.1327 14.5204 69.8845 15.3943 68.002 15.3943H61.5046V12.0096ZM93.6047 14.3224H90.7683C88.3358 14.3224 87.8394 13.8621 87.8394 12.9944C87.8394 11.9339 89.4675 11.5256 91.7636 11.5256C93.7833 11.5256 95.6913 11.8653 97.9003 12.9011L99.597 10.5126C97.1874 9.05701 94.798 8.52722 91.7865 8.52722C87.1847 8.52722 84.4336 10.2539 84.4336 13.151C84.4336 16.3043 87.0447 17.3806 90.4048 17.3489H93.5281C96.6013 17.3489 97.0105 17.7001 97.0105 18.8723C97.0105 20.0322 95.3102 20.753 92.5742 20.753C90.1681 20.753 87.6925 20.2786 85.5196 18.8274C85.5196 18.8257 83.7973 21.2731 83.7973 21.2731C86.1057 23.1071 88.9492 23.7408 92.5548 23.7408C97.5861 23.7408 100.474 21.9111 100.474 18.7209C100.473 15.7877 98.1625 14.3224 93.6047 14.3224ZM46.4318 8.65835C45.7762 8.65835 45.1329 8.96021 44.8231 9.4636L36.444 23.2066H40.2142L41.7481 20.6245H51.1172L52.6512 23.2066H56.4214L48.0423 9.4636C47.7317 8.96021 47.0892 8.65835 46.4318 8.65835ZM46.4336 12.7365C46.5445 12.9266 48.0617 15.4832 49.5719 18.023H43.2935C43.2935 18.023 46.3209 12.9266 46.4318 12.7365H46.4336Z" 
    fill="currentColor"
    />
</svg>
