<svg width="99" height="99" viewBox="0 0 99 99" fill="none" xmlns="http://www.w3.org/2000/svg">
    <rect width="99" height="99" fill="black"/>
    <g filter="url(#filter0_d_4_3)">
    <path d="M10.625 37.3438C11.2292 37.4479 11.7604 37.5208 12.2188 37.5625C12.6979 37.6042 13.0938 37.6354 13.4062 37.6562C13.7812 37.6771 14.1042 37.6875 14.375 37.6875C14.6458 37.6875 15.0312 37.6667 15.5312 37.625C15.9479 37.5833 16.4896 37.5312 17.1562 37.4688C17.8438 37.4062 18.6875 37.3021 19.6875 37.1562C19.3958 37.2396 19.125 37.4792 18.875 37.875C18.6458 38.25 18.4375 38.6562 18.25 39.0938C18.0208 39.6146 17.8229 40.1875 17.6562 40.8125C17.5104 41.375 17.3229 42.1458 17.0938 43.125C16.8854 44.1042 16.6771 45.1667 16.4688 46.3125C16.2812 47.4583 16.1354 48.625 16.0312 49.8125C15.9271 50.9792 15.9062 52.0521 15.9688 53.0312C16.0521 54.0104 16.25 54.8229 16.5625 55.4688C16.875 56.0938 17.3542 56.4271 18 56.4688C18.9792 56.5521 19.7917 56.5625 20.4375 56.5C21.1042 56.4167 21.6458 56.3021 22.0625 56.1562C22.4792 56.0104 22.8021 55.8438 23.0312 55.6562C23.2604 55.4479 23.4375 55.25 23.5625 55.0625C23.8958 54.5833 24.2396 53.9688 24.5938 53.2188C24.9479 52.4688 25.2604 51.75 25.5312 51.0625C25.8229 50.375 26.0625 49.7917 26.25 49.3125C26.4375 48.8333 26.5312 48.6042 26.5312 48.625C26.5312 48.6667 26.5208 48.9062 26.5 49.3438C26.5 49.7604 26.4896 50.2708 26.4688 50.875C26.4688 51.4583 26.4583 52.0729 26.4375 52.7188C26.4375 53.3646 26.4271 53.9167 26.4062 54.375C26.3854 54.75 26.3646 55.1667 26.3438 55.625C26.3229 56.0208 26.3021 56.4896 26.2812 57.0312C26.2812 57.5729 26.2604 58.1667 26.2188 58.8125C25.3438 58.75 24.5104 58.7083 23.7188 58.6875C22.9271 58.6667 22.2292 58.6562 21.625 58.6562C20.9167 58.6562 20.2604 58.6667 19.6562 58.6875C19.0104 58.7083 18.2604 58.7396 17.4062 58.7812C16.6771 58.8229 15.7708 58.875 14.6875 58.9375C13.6042 58.9792 12.3542 59.0417 10.9375 59.125C11.1042 58.8333 11.2396 58.5625 11.3438 58.3125C11.4688 58.0625 11.5625 57.8542 11.625 57.6875C11.7083 57.4792 11.7604 57.3021 11.7812 57.1562C11.9062 56.4896 12.0104 55.6458 12.0938 54.625C12.1771 53.5833 12.2396 52.4792 12.2812 51.3125C12.3438 50.1458 12.375 48.9583 12.375 47.75C12.3958 46.5208 12.3958 45.3854 12.375 44.3438C12.3542 43.3021 12.3125 42.3958 12.25 41.625C12.2083 40.8542 12.1458 40.3229 12.0625 40.0312C11.9583 39.6979 11.8333 39.3646 11.6875 39.0312C11.5625 38.7396 11.4062 38.4479 11.2188 38.1562C11.0521 37.8438 10.8542 37.5729 10.625 37.3438ZM37.625 36.4375C38.75 36.4792 39.8854 36.6875 41.0312 37.0625C42.1979 37.4167 43.2708 38 44.25 38.8125C45.2292 39.6042 46.0625 40.6354 46.75 41.9062C47.4375 43.1562 47.8646 44.6875 48.0312 46.5C48.1771 47.9792 47.9896 49.4479 47.4688 50.9062C46.9688 52.3438 46.2708 53.6667 45.375 54.875C44.4792 56.0833 43.4479 57.1146 42.2812 57.9688C41.1146 58.8021 39.9479 59.3542 38.7812 59.625C38.0729 59.7917 37.2917 59.8125 36.4375 59.6875C35.6042 59.5417 34.75 59.2812 33.875 58.9062C33.0208 58.5104 32.1771 58.0104 31.3438 57.4062C30.5312 56.8021 29.7917 56.1146 29.125 55.3438C28.4583 54.5521 27.8958 53.6979 27.4375 52.7812C27 51.8646 26.7292 50.9062 26.625 49.9062C26.5208 49.0729 26.5104 48.1562 26.5938 47.1562C26.6979 46.1354 26.8958 45.125 27.1875 44.125C27.5 43.1042 27.9271 42.125 28.4688 41.1875C29.0312 40.2292 29.7396 39.3958 30.5938 38.6875C31.4479 37.9583 32.4479 37.3958 33.5938 37C34.7604 36.5833 36.1042 36.3958 37.625 36.4375ZM32.0312 49.0938C31.7396 51.3229 31.9479 53.1146 32.6562 54.4688C33.3854 55.8229 34.4792 56.6458 35.9375 56.9375C36.6458 57.0833 37.3229 56.9375 37.9688 56.5C38.6354 56.0417 39.2396 55.3854 39.7812 54.5312C40.3229 53.6771 40.7917 52.6771 41.1875 51.5312C41.5833 50.3854 41.875 49.1875 42.0625 47.9375C42.25 46.6875 42.2604 45.5625 42.0938 44.5625C41.9479 43.5417 41.6875 42.6771 41.3125 41.9688C40.9375 41.2396 40.4792 40.6771 39.9375 40.2812C39.4167 39.8854 38.875 39.6667 38.3125 39.625C37.3333 39.5625 36.4792 39.8229 35.75 40.4062C35.0208 40.9688 34.4062 41.7083 33.9062 42.625C33.4062 43.5417 33 44.5729 32.6875 45.7188C32.3958 46.8646 32.1771 47.9896 32.0312 49.0938ZM60.9375 37.4375C62.2708 37.4167 63.3646 37.6562 64.2188 38.1562C65.0938 38.6562 65.8021 39.25 66.3438 39.9375C66.8854 40.625 67.3021 41.3229 67.5938 42.0312C67.8854 42.7188 68.1146 43.2604 68.2812 43.6562C68.3229 43.7604 68.4062 43.8958 68.5312 44.0625C68.6354 44.2083 68.7812 44.3854 68.9688 44.5938C69.1771 44.7812 69.4375 45 69.75 45.25C69.1042 45.2708 68.5312 45.2917 68.0312 45.3125C67.5312 45.3125 67.1042 45.3229 66.75 45.3438C66.3542 45.3646 66 45.3854 65.6875 45.4062C65.375 45.4271 64.9896 45.4583 64.5312 45.5C64.1146 45.5417 63.6042 45.5833 63 45.625C62.3958 45.6667 61.6562 45.7292 60.7812 45.8125C61.3021 45.1875 61.7083 44.6354 62 44.1562C62.3125 43.6562 62.5417 43.2188 62.6875 42.8438C62.8542 42.4479 62.9479 42.1042 62.9688 41.8125C63.0104 41.5208 63 41.2708 62.9375 41.0625C62.8125 40.5833 62.4896 40.2396 61.9688 40.0312C60.4688 39.6146 59.1562 39.9479 58.0312 41.0312C56.9271 42.0938 56.1354 43.8438 55.6562 46.2812C55.4271 47.4896 55.2083 48.75 55 50.0625C54.8125 51.3542 54.7396 52.5417 54.7812 53.625C54.8229 54.6875 55.0312 55.5521 55.4062 56.2188C55.7812 56.8854 56.4271 57.1979 57.3438 57.1562C58.2396 57.1146 59 56.9688 59.625 56.7188C60.25 56.4479 60.75 56.1354 61.125 55.7812C61.5 55.4062 61.7604 55.0104 61.9062 54.5938C62.0729 54.1562 62.1354 53.75 62.0938 53.375C62.0104 53.0833 61.7917 52.7708 61.4375 52.4375C61.125 52.1458 60.6562 51.8229 60.0312 51.4688C59.4062 51.0938 58.5104 50.7083 57.3438 50.3125C58.4479 50.25 59.3542 50.2083 60.0625 50.1875C60.7917 50.1458 61.3646 50.1042 61.7812 50.0625C62.2812 50.0208 62.6667 49.9896 62.9375 49.9688C63.1875 49.9479 63.5521 49.9271 64.0312 49.9062C64.4479 49.8854 64.9792 49.875 65.625 49.875C66.2917 49.875 67.125 49.8646 68.125 49.8438C67.75 50.2188 67.4583 50.5625 67.25 50.875C67.1458 51.0417 67.0521 51.1875 66.9688 51.3125C66.8854 51.5208 66.8542 51.9479 66.875 52.5938C66.875 53.1354 66.9167 53.9375 67 55C67.0833 56.0417 67.2396 57.4688 67.4688 59.2812L63.3125 59.8438L63.5 55.625C63.0208 56.7708 62.4167 57.625 61.6875 58.1875C60.9792 58.75 60.3021 59.1458 59.6562 59.375C58.8854 59.6458 58.0833 59.7708 57.25 59.75C56.1667 59.6458 55.0833 59.3958 54 59C52.9167 58.6042 51.9583 58 51.125 57.1875C50.2917 56.3542 49.6458 55.2812 49.1875 53.9688C48.75 52.6562 48.6146 51.0312 48.7812 49.0938C48.9688 47.1562 49.4271 45.4688 50.1562 44.0312C50.9062 42.5729 51.8333 41.3646 52.9375 40.4062C54.0417 39.4479 55.2812 38.7292 56.6562 38.25C58.0521 37.75 59.4792 37.4792 60.9375 37.4375ZM80.0312 36.4375C81.1562 36.4792 82.2917 36.6875 83.4375 37.0625C84.6042 37.4167 85.6771 38 86.6562 38.8125C87.6354 39.6042 88.4688 40.6354 89.1562 41.9062C89.8438 43.1562 90.2708 44.6875 90.4375 46.5C90.5833 47.9792 90.3958 49.4479 89.875 50.9062C89.375 52.3438 88.6771 53.6667 87.7812 54.875C86.8854 56.0833 85.8542 57.1146 84.6875 57.9688C83.5208 58.8021 82.3542 59.3542 81.1875 59.625C80.4792 59.7917 79.6979 59.8125 78.8438 59.6875C78.0104 59.5417 77.1562 59.2812 76.2812 58.9062C75.4271 58.5104 74.5833 58.0104 73.75 57.4062C72.9375 56.8021 72.1979 56.1146 71.5312 55.3438C70.8646 54.5521 70.3021 53.6979 69.8438 52.7812C69.4062 51.8646 69.1354 50.9062 69.0312 49.9062C68.9271 49.0729 68.9167 48.1562 69 47.1562C69.1042 46.1354 69.3021 45.125 69.5938 44.125C69.9062 43.1042 70.3333 42.125 70.875 41.1875C71.4375 40.2292 72.1458 39.3958 73 38.6875C73.8542 37.9583 74.8542 37.3958 76 37C77.1667 36.5833 78.5104 36.3958 80.0312 36.4375ZM74.4375 49.0938C74.1458 51.3229 74.3542 53.1146 75.0625 54.4688C75.7917 55.8229 76.8854 56.6458 78.3438 56.9375C79.0521 57.0833 79.7292 56.9375 80.375 56.5C81.0417 56.0417 81.6458 55.3854 82.1875 54.5312C82.7292 53.6771 83.1979 52.6771 83.5938 51.5312C83.9896 50.3854 84.2812 49.1875 84.4688 47.9375C84.6562 46.6875 84.6667 45.5625 84.5 44.5625C84.3542 43.5417 84.0938 42.6771 83.7188 41.9688C83.3438 41.2396 82.8854 40.6771 82.3438 40.2812C81.8229 39.8854 81.2812 39.6667 80.7188 39.625C79.7396 39.5625 78.8854 39.8229 78.1562 40.4062C77.4271 40.9688 76.8125 41.7083 76.3125 42.625C75.8125 43.5417 75.4062 44.5729 75.0938 45.7188C74.8021 46.8646 74.5833 47.9896 74.4375 49.0938Z" fill="white"/>
    </g>
    <defs>
    <filter id="filter0_d_4_3" x="9.725" y="36.375" width="81.8312" height="25.4" filterUnits="userSpaceOnUse" color-interpolation-filters="sRGB">
    <feFlood flood-opacity="0" result="BackgroundImageFix"/>
    <feColorMatrix in="SourceAlpha" type="matrix" values="0 0 0 0 0 0 0 0 0 0 0 0 0 0 0 0 0 0 127 0" result="hardAlpha"/>
    <feOffset dy="1"/>
    <feGaussianBlur stdDeviation="0.45"/>
    <feComposite in2="hardAlpha" operator="out"/>
    <feColorMatrix type="matrix" values="0 0 0 0 0 0 0 0 0 0 0 0 0 0 0 0 0 0 0.25 0"/>
    <feBlend mode="darken" in2="BackgroundImageFix" result="effect1_dropShadow_4_3"/>
    <feBlend mode="normal" in="SourceGraphic" in2="effect1_dropShadow_4_3" result="shape"/>
    </filter>
    </defs>
</svg>
